<?xml version="1.0" encoding="UTF-8" standalone="no"?>
<!-- Generator: Adobe Illustrator 19.2.1, SVG Export Plug-In . SVG Version: 6.00 Build 0)  -->

<svg
   version="1.1"
   id="logo_-_color"
   x="0px"
   y="0px"
   viewBox="0 0 747.77686 802.31567"
   xml:space="preserve"
   sodipodi:docname="ome-sparql-logo.svg"
   inkscape:version="1.2.2 (b0a8486541, 2022-12-01)"
   width="747.77686"
   height="802.31567"
   xmlns:inkscape="http://www.inkscape.org/namespaces/inkscape"
   xmlns:sodipodi="http://sodipodi.sourceforge.net/DTD/sodipodi-0.dtd"
   xmlns="http://www.w3.org/2000/svg"
   xmlns:svg="http://www.w3.org/2000/svg"><defs
   id="defs23">
		
		
		
		
		
		
	</defs><sodipodi:namedview
   id="namedview21"
   pagecolor="#ffffff"
   bordercolor="#000000"
   borderopacity="0.25"
   inkscape:showpageshadow="2"
   inkscape:pageopacity="0.0"
   inkscape:pagecheckerboard="0"
   inkscape:deskcolor="#d1d1d1"
   showgrid="false"
   inkscape:zoom="0.37249375"
   inkscape:cx="598.66776"
   inkscape:cy="170.47266"
   inkscape:window-width="1920"
   inkscape:window-height="1065"
   inkscape:window-x="0"
   inkscape:window-y="0"
   inkscape:window-maximized="1"
   inkscape:current-layer="g18"
   showguides="false" />
<style
   type="text/css"
   id="style2">
	.st0{fill:#DF283F;}
	.st1{fill:#1C4A87;}
	.st2{fill:#128669;}
	.st3{fill:#1D8DCD;}
</style>
<g
   id="g18"
   transform="translate(-7.5932199,-90.999742)">
	
<g
   id="g455"
   transform="matrix(28.085513,0,0,28.085513,-70.211911,45.446116)"><path
     d="M 26.284,20.361 C 26.119,20.277 25.925,20.197 25.761,20.113 H 25.9 c 0,0 -1.158,-0.5 -1.24,-4.176 -0.111,-3.655 1.1,-4.289 1.1,-4.289 A 4.96,4.96 0 0 0 27.936,9.505 5.122,5.122 0 0 0 25.814,2.578 5.342,5.342 0 0 0 18.676,4.724 5.067,5.067 0 0 0 18.153,7.938 L 18.1,7.855 c 0,0 0.3,1.319 -2.839,3.272 -3.115,1.95 -4.549,0.962 -4.549,0.962 l 0.082,0.138 a 2.131,2.131 0 0 0 -0.273,-0.167 5.117,5.117 0 1 0 0.825,8.52 l -0.025,0.055 c 0,0 1.129,-0.933 4.407,0.827 2.592,1.374 2.979,2.748 3.033,3.24 a 5.1,5.1 0 0 0 2.7,4.7 5.124,5.124 0 1 0 4.825,-9.041 z m -5.79,0.685 c -0.412,0.138 -1.6,0.3 -4.077,-1.017 -2.7,-1.454 -3.115,-2.664 -3.169,-3.021 a 5.406,5.406 0 0 0 -0.057,-1.319 l 0.029,0.026 c 0,0 -0.22,-1.181 2.864,-3.076 2.757,-1.705 4.026,-1.374 4.245,-1.293 a 2.83,2.83 0 0 0 0.47,0.277 4.082,4.082 0 0 0 0.964,0.383 c 0.387,0.357 1.076,1.374 1.158,4.1 0.082,2.726 -0.717,3.764 -1.158,4.121 a 5.04,5.04 0 0 0 -1.269,0.82 z"
     style="fill:#1c4a87;fill-opacity:1"
     id="path443" /><path
     d="M 20.135,4.229 A 3.861,3.861 0 0 0 20.053,9.615 C 19.336,8.93 19.365,7.498 20.082,6.153 a 0.673,0.673 0 0 1 0.746,-0.277 c 0.025,0 0.054,0.029 0.082,0.029 A 0.993,0.993 0 0 0 21.186,5.931 1.056,1.056 0 0 0 22.2,4.805 0.934,0.934 0 0 0 21.9,4.12 c 1.38,-0.907 2.95,-1.017 3.61,-0.412 h 0.029 A 3.826,3.826 0 0 0 20.135,4.229 Z M 5.145,13.846 A 3.859,3.859 0 0 0 5.063,19.235 C 4.346,18.546 4.371,17.118 5.088,15.77 a 0.668,0.668 0 0 1 0.746,-0.273 c 0.025,0 0.054,0.029 0.082,0.029 a 1,1 0 0 0 0.276,0.026 1.056,1.056 0 0 0 1.018,-1.127 0.945,0.945 0 0 0 -0.3,-0.689 c 1.377,-0.907 2.947,-1.017 3.61,-0.412 h 0.025 a 3.852,3.852 0 0 0 -5.4,0.522 z m 15.872,8.163 a 3.865,3.865 0 0 0 -0.082,5.389 c -0.717,-0.689 -0.688,-2.117 0.029,-3.465 A 0.668,0.668 0 0 1 21.71,23.66 c 0.025,0 0.054,0.026 0.082,0.026 a 0.887,0.887 0 0 0 0.276,0.029 1.057,1.057 0 0 0 1.018,-1.126 0.936,0.936 0 0 0 -0.3,-0.689 c 1.38,-0.907 2.95,-1.017 3.61,-0.412 h 0.029 a 3.829,3.829 0 0 0 -5.408,0.521 z"
     style="fill:#ffffff"
     id="path445" /></g><path
   class="st3"
   d="m 755.3701,744.75948 c 0,82.05394 -66.50199,148.55592 -148.55592,148.55592 -82.05392,0 -148.55591,-66.50198 -148.55591,-148.55592 0,-82.05393 66.50199,-148.55592 148.55591,-148.55592 82.05393,0 148.55592,66.50199 148.55592,148.55592 z"
   id="path12"
   style="stroke-width:1.16059" /><path
   class="st0"
   d="m 307.88515,512.36247 c 0,82.93219 -67.21378,150.14597 -150.14596,150.14597 -82.93219,0 -150.1459701,-67.21378 -150.1459701,-150.14597 0,-82.93218 67.2137801,-150.14596 150.1459701,-150.14596 82.93218,0 150.14596,67.21378 150.14596,150.14596 z"
   id="path4"
   style="stroke-width:1.17302" /><path
   class="st2"
   d="m 733.10943,241.14571 c 0,82.93218 -67.21378,150.14596 -150.14596,150.14596 -82.93219,0 -150.14597,-67.21378 -150.14597,-150.14596 0,-82.93219 67.21378,-150.145968 150.14597,-150.145968 82.93218,0 150.14596,67.213778 150.14596,150.145968 z"
   id="path8"
   style="stroke-width:1.17301" /></g>
</svg>
